<?xml version="1.0" ?><svg fill="none" height="28" viewBox="0 0 28 28" width="28" xmlns="http://www.w3.org/2000/svg"><path clip-rule="evenodd" d="M11.0297 3.92593C6.55413 3.92593 2.92593 7.55413 2.92593 12.0298C2.92593 16.5054 6.55413 20.1336 11.0297 20.1336H16.9703C17.1482 20.1336 17.3247 20.1279 17.4995 20.1166C17.8151 20.0963 18.1346 20.195 18.3872 20.4064L21.2349 22.7897C21.3651 22.8987 21.5633 22.8061 21.5633 22.6364V19.3368C21.5633 18.9472 21.7438 18.5898 22.035 18.3564C23.8894 16.8696 25.0741 14.5884 25.0741 12.0298C25.0741 7.55413 21.4459 3.92593 16.9703 3.92593H11.0297ZM1 12.0298C1 6.49047 5.49047 2 11.0297 2H16.9703C22.5095 2 27 6.49047 27 12.0298C27 15.0808 25.6366 17.8141 23.4892 19.6522V24.5077C23.4892 25.5703 22.2488 26.1497 21.4339 25.4677L17.353 22.0523C17.226 22.0571 17.0984 22.0595 16.9703 22.0595H11.0297C5.49047 22.0595 1 17.569 1 12.0298Z" fill="black" fill-rule="evenodd"/></svg>