<svg width="17" height="18" viewBox="0 0 17 18" fill="none" xmlns="http://www.w3.org/2000/svg">
<path d="M16.5046 7.36788H15.8333V7.33329H8.33333V10.6666H13.0429C12.3558 12.607 10.5096 14 8.33333 14C5.57208 14 3.33333 11.7612 3.33333 8.99996C3.33333 6.23871 5.57208 3.99996 8.33333 3.99996C9.60792 3.99996 10.7675 4.48079 11.6504 5.26621L14.0075 2.90913C12.5192 1.52204 10.5283 0.666626 8.33333 0.666626C3.73125 0.666626 0 4.39788 0 8.99996C0 13.602 3.73125 17.3333 8.33333 17.3333C12.9354 17.3333 16.6667 13.602 16.6667 8.99996C16.6667 8.44121 16.6092 7.89579 16.5046 7.36788Z" fill="#FBC02D"/>
<path d="M0.960815 5.12121L3.69873 7.12913C4.43957 5.29496 6.23373 3.99996 8.33332 3.99996C9.6079 3.99996 10.7675 4.48079 11.6504 5.26621L14.0075 2.90913C12.5191 1.52204 10.5283 0.666626 8.33332 0.666626C5.13248 0.666626 2.35665 2.47371 0.960815 5.12121Z" fill="#E53935"/>
<path d="M8.33342 17.3334C10.4859 17.3334 12.4418 16.5096 13.9205 15.17L11.3413 12.9875C10.5047 13.6213 9.46467 14 8.33342 14C6.16592 14 4.32551 12.618 3.63217 10.6892L0.914673 12.783C2.29384 15.4817 5.09467 17.3334 8.33342 17.3334Z" fill="#4CAF50"/>
<path d="M16.5046 7.36796L16.498 7.33337H15.8334H8.33337V10.6667H13.043C12.713 11.5988 12.1134 12.4025 11.34 12.988L11.3413 12.9871L13.9205 15.1696C13.738 15.3355 16.6667 13.1667 16.6667 9.00004C16.6667 8.44129 16.6092 7.89587 16.5046 7.36796Z" fill="#1565C0"/>
</svg>
